<svg width="25" height="25" viewBox="0 0 25 25" fill="none" xmlns="http://www.w3.org/2000/svg">
<g opacity="0.85">
<path d="M22.9164 11.4584C22.9069 8.21435 22.8043 6.49453 21.6969 5.38713C20.4766 4.16675 18.5123 4.16675 14.584 4.16675H10.4173C6.48894 4.16675 4.52477 4.16675 3.30437 5.38713C2.08398 6.60753 2.08398 8.57171 2.08398 12.5001C2.08398 16.4284 2.08398 18.3927 3.30437 19.613C4.52477 20.8334 6.48894 20.8334 10.4173 20.8334H11.9798" stroke="#0A3C43" stroke-width="2" stroke-linecap="round"/>
<path d="M16.1458 14.5835V20.8335M16.1458 20.8335L18.2292 18.7502M16.1458 20.8335L14.0625 18.7502M20.8333 20.8335V14.5835M20.8333 14.5835L22.9167 16.6668M20.8333 14.5835L18.75 16.6668" stroke="#0A3C43" stroke-linecap="round" stroke-linejoin="round"/>
<path d="M10.4167 16.6667H6.25" stroke="#0A3C43" stroke-width="2" stroke-linecap="round"/>
<path d="M2.08398 10.4167H22.9173" stroke="#0A3C43" stroke-width="2" stroke-linecap="round"/>
</g>
</svg>
