<svg width="137" height="135" viewBox="0 0 137 135" fill="none" xmlns="http://www.w3.org/2000/svg">
<path d="M124.61 91.5392H115.77V66.0592C115.753 54.9816 111.889 44.2537 104.84 35.7086C97.7904 27.1635 87.9924 21.3315 77.12 19.2092C78.2501 17.5566 78.9077 15.627 79.022 13.6282C79.1364 11.6295 78.7031 9.63746 77.7688 7.86681C76.8346 6.09616 75.4348 4.61405 73.7204 3.5802C72.006 2.54636 70.042 2 68.04 2C66.038 2 64.074 2.54636 62.3596 3.5802C60.6452 4.61405 59.2454 6.09616 58.3112 7.86681C57.3769 9.63746 56.9436 11.6295 57.058 13.6282C57.1723 15.627 57.8299 17.5566 58.96 19.2092C48.0867 21.3297 38.2876 27.1612 31.2378 35.7067C24.188 44.2522 20.3253 54.981 20.31 66.0592V91.5392H11.47C8.95921 91.5418 6.55202 92.5404 4.77662 94.3158C3.00123 96.0912 2.00265 98.4984 2 101.009L2 104.469C2.0132 106.973 3.01644 109.37 4.7907 111.137C6.56495 112.903 8.96612 113.897 11.47 113.899H124.61C127.121 113.897 129.528 112.898 131.303 111.123C133.079 109.347 134.077 106.94 134.08 104.429V101.009C134.077 98.4984 133.079 96.0912 131.303 94.3158C129.528 92.5404 127.121 91.5418 124.61 91.5392ZM68 7.89915C68.9889 7.89915 69.9556 8.1924 70.7779 8.74181C71.6001 9.29121 72.241 10.0721 72.6194 10.9857C72.9978 11.8994 73.0968 12.9047 72.9039 13.8746C72.711 14.8445 72.2348 15.7354 71.5355 16.4347C70.8363 17.134 69.9454 17.6102 68.9754 17.8031C68.0055 17.996 67.0002 17.897 66.0866 17.5186C65.173 17.1401 64.3921 16.4993 63.8427 15.677C63.2932 14.8548 63 13.8881 63 12.8992C63 11.5731 63.5268 10.3013 64.4645 9.36362C65.4021 8.42594 66.6739 7.89915 68 7.89915ZM26.31 66.0592C26.31 54.9917 30.7065 44.3775 38.5324 36.5516C46.3583 28.7257 56.9725 24.3292 68.04 24.3292C79.1075 24.3292 89.7217 28.7257 97.5476 36.5516C105.373 44.3775 109.77 54.9917 109.77 66.0592V91.5392H26.31V66.0592ZM128.08 104.469C128.08 105.389 127.714 106.272 127.064 106.923C126.413 107.574 125.53 107.939 124.61 107.939H11.47C10.5497 107.939 9.66709 107.574 9.01634 106.923C8.36559 106.272 8 105.389 8 104.469V101.009C8.00264 100.09 8.36907 99.2086 9.01925 98.5584C9.66943 97.9082 10.5505 97.5418 11.47 97.5392H124.61C125.529 97.5418 126.411 97.9082 127.061 98.5584C127.711 99.2086 128.077 100.09 128.08 101.009V104.469Z" fill="#01211F" stroke="black" stroke-width="4"/>
<path d="M96.65 126.099H35.46C34.6644 126.099 33.9013 126.415 33.3387 126.978C32.7761 127.54 32.46 128.303 32.46 129.099C32.46 129.895 32.7761 130.658 33.3387 131.22C33.9013 131.783 34.6644 132.099 35.46 132.099H96.65C97.4457 132.099 98.2087 131.783 98.7713 131.22C99.3339 130.658 99.65 129.895 99.65 129.099C99.65 128.303 99.3339 127.54 98.7713 126.978C98.2087 126.415 97.4457 126.099 96.65 126.099Z" fill="#01211F" stroke="black" stroke-width="4"/>
</svg>
