<svg width="100" height="100" viewBox="0 0 100 100" fill="none" xmlns="http://www.w3.org/2000/svg">
<path d="M92.6386 2.88513L4.60382 90.9199L8.84646 95.1626L96.8813 7.12777L92.6386 2.88513Z" fill="#01211F" stroke="black" stroke-width="4"/>
<path d="M75.09 52.4199C70.6063 52.4199 66.2233 53.7495 62.4953 56.2405C58.7672 58.7315 55.8615 62.2721 54.1457 66.4145C52.4299 70.5569 51.9809 75.1151 52.8557 79.5126C53.7304 83.9102 55.8895 87.9496 59.0599 91.12C62.2304 94.2905 66.2698 96.4496 70.6674 97.3243C75.0649 98.1991 79.6231 97.7501 83.7655 96.0343C87.9079 94.3184 91.4485 91.4128 93.9395 87.6847C96.4305 83.9566 97.7601 79.5736 97.7601 75.0899C97.7521 69.0799 95.3611 63.3183 91.1114 59.0686C86.8617 54.8189 81.1001 52.4279 75.09 52.4199ZM75.09 91.7599C71.793 91.7599 68.5701 90.7822 65.8287 88.9505C63.0873 87.1188 60.9507 84.5153 59.689 81.4693C58.4273 78.4232 58.0971 75.0714 58.7404 71.8378C59.3836 68.6041 60.9712 65.6338 63.3026 63.3025C65.6339 60.9711 68.6042 59.3835 71.8379 58.7402C75.0716 58.097 78.4233 58.4271 81.4694 59.6889C84.5154 60.9506 87.1189 63.0872 88.9507 65.8286C90.7824 68.5699 91.7601 71.7929 91.7601 75.0899C91.7548 79.5095 89.9968 83.7465 86.8717 86.8716C83.7466 89.9966 79.5096 91.7546 75.09 91.7599Z" fill="#01211F" stroke="black" stroke-width="4"/>
<path d="M24.67 47.34C29.1537 47.34 33.5367 46.0104 37.2648 43.5194C40.9928 41.0284 43.8985 37.4878 45.6143 33.3454C47.3302 29.203 47.7791 24.6449 46.9044 20.2473C46.0297 15.8498 43.8706 11.8104 40.7001 8.6399C37.5297 5.46944 33.4902 3.31033 29.0927 2.43561C24.6951 1.56088 20.137 2.00982 15.9946 3.72566C11.8522 5.4415 8.3116 8.34717 5.82058 12.0752C3.32957 15.8033 2 20.1863 2 24.67C2.00794 30.68 4.39893 36.4416 8.64866 40.6914C12.8984 44.9411 18.66 47.3321 24.67 47.34ZM24.67 8.00001C27.967 8.00001 31.19 8.97769 33.9314 10.8094C36.6727 12.6411 38.8094 15.2446 40.0711 18.2907C41.3328 21.3367 41.6629 24.6885 41.0197 27.9222C40.3765 31.1558 38.7888 34.1261 36.4575 36.4575C34.1261 38.7888 31.1558 40.3765 27.9222 41.0197C24.6885 41.6629 21.3367 41.3328 18.2907 40.0711C15.2446 38.8094 12.6411 36.6727 10.8094 33.9314C8.97768 31.19 8 27.967 8 24.67C8.00529 20.2505 9.76329 16.0135 12.8884 12.8884C16.0135 9.7633 20.2505 8.0053 24.67 8.00001Z" fill="#01211F" stroke="black" stroke-width="4"/>
</svg>
