<svg width="70" height="70" viewBox="0 0 70 70" fill="none" xmlns="http://www.w3.org/2000/svg">
<path d="M35.1667 64.3333C51.275 64.3333 64.3333 51.275 64.3333 35.1667C64.3333 19.0584 51.275 6 35.1667 6C19.0584 6 6 19.0584 6 35.1667C6 51.275 19.0584 64.3333 35.1667 64.3333Z" stroke="#FE0000" stroke-width="3.5"/>
<path fill-rule="evenodd" clip-rule="evenodd" d="M25.4184 25.4184C25.9763 24.8605 26.8808 24.8605 27.4387 25.4184L35 32.9797L42.5613 25.4184C43.1192 24.8605 44.0237 24.8605 44.5816 25.4184C45.1395 25.9763 45.1395 26.8808 44.5816 27.4387L37.0203 35L44.5816 42.5613C45.1395 43.1192 45.1395 44.0237 44.5816 44.5816C44.0237 45.1395 43.1192 45.1395 42.5613 44.5816L35 37.0203L27.4387 44.5816C26.8808 45.1395 25.9763 45.1395 25.4184 44.5816C24.8605 44.0237 24.8605 43.1192 25.4184 42.5613L32.9797 35L25.4184 27.4387C24.8605 26.8808 24.8605 25.9763 25.4184 25.4184Z" fill="#0A3C43"/>
</svg>
