<svg width="110" height="115" viewBox="0 0 110 115" fill="none" xmlns="http://www.w3.org/2000/svg">
<path d="M98.91 49.0599H97.46V26.5799C97.4574 24.0708 96.4602 21.6651 94.6869 19.89C92.9137 18.1149 90.5091 17.1152 88 17.1099H59.77C58.9743 17.1099 58.2113 17.4259 57.6487 17.9885C57.0861 18.5512 56.77 19.3142 56.77 20.1099C56.77 20.9055 57.0861 21.6686 57.6487 22.2312C58.2113 22.7938 58.9743 23.1099 59.77 23.1099H88C88.9195 23.1125 89.8006 23.4789 90.4507 24.1291C91.1009 24.7793 91.4674 25.6604 91.47 26.5799V49.0599H71.93C68.727 49.0625 65.6559 50.3361 63.3911 52.6009C61.1262 54.8658 59.8526 57.9369 59.85 61.1399V68.5399C59.8526 71.7429 61.1262 74.8139 63.3911 77.0788C65.6559 79.3437 68.727 80.6172 71.93 80.6199H91.46V103.1C91.4574 104.018 91.0923 104.897 90.4443 105.547C89.7963 106.197 88.9178 106.565 88 106.57H11.47C10.5505 106.567 9.66943 106.201 9.01925 105.551C8.36907 104.9 8.00264 104.019 8 103.1V26.5799C8.00264 25.6604 8.36907 24.7793 9.01925 24.1291C9.66943 23.4789 10.5505 23.1125 11.47 23.1099H39.52C40.3157 23.1099 41.0787 22.7938 41.6413 22.2312C42.2039 21.6686 42.52 20.9055 42.52 20.1099C42.52 19.3142 42.2039 18.5512 41.6413 17.9885C41.0787 17.4259 40.3157 17.1099 39.52 17.1099H11.47C8.95921 17.1125 6.55202 18.1111 4.77662 19.8865C3.00123 21.6619 2.00265 24.0691 2 26.5799V103.1C2.00265 105.611 3.00123 108.018 4.77662 109.793C6.55202 111.569 8.95921 112.567 11.47 112.57H88C90.5108 112.567 92.918 111.569 94.6934 109.793C96.4688 108.018 97.4674 105.611 97.47 103.1V80.6199H98.92C101.068 80.6199 103.129 79.7665 104.648 78.2474C106.167 76.7284 107.02 74.6681 107.02 72.5199V57.1599C107.017 55.0107 106.162 52.9504 104.641 51.4317C103.12 49.9129 101.059 49.0599 98.91 49.0599ZM101 72.5199C101 73.0768 100.779 73.611 100.385 74.0048C99.9911 74.3986 99.457 74.6199 98.9 74.6199H71.9C70.2883 74.6172 68.7434 73.9758 67.6037 72.8362C66.4641 71.6965 65.8226 70.1516 65.82 68.5399V61.1399C65.8226 59.5282 66.4641 57.9832 67.6037 56.8436C68.7434 55.7039 70.2883 55.0625 71.9 55.0599H98.9C99.457 55.0599 99.9911 55.2811 100.385 55.6749C100.779 56.0688 101 56.6029 101 57.1599V72.5199Z" fill="#01211F" stroke="black" stroke-width="4"/>
<path d="M39.11 32.38C38.8664 32.0701 38.5641 31.8112 38.2205 31.6181C37.8768 31.425 37.4985 31.3014 37.1071 31.2545C36.7157 31.2077 36.3189 31.2383 35.9393 31.3448C35.5598 31.4512 35.2049 31.6314 34.895 31.875C34.5851 32.1186 34.3262 32.4209 34.1331 32.7645C33.94 33.1082 33.8164 33.4865 33.7695 33.8779C33.7227 34.2693 33.7533 34.6661 33.8598 35.0457C33.9662 35.4252 34.1464 35.7801 34.39 36.09L47.22 52.42C47.2558 52.4508 47.2892 52.4842 47.32 52.52C47.4057 52.6207 47.4993 52.7143 47.6 52.8L47.79 52.96L48.13 53.18L48.33 53.28C48.4672 53.3462 48.6114 53.3965 48.76 53.43C48.815 53.4544 48.8719 53.4745 48.93 53.49C49.3549 53.5835 49.7951 53.5835 50.22 53.49C50.2786 53.4761 50.3356 53.456 50.39 53.43C50.5386 53.3965 50.6828 53.3462 50.82 53.28L51.02 53.18L51.36 52.96L51.55 52.8C51.6507 52.7143 51.7443 52.6207 51.83 52.52C51.8608 52.4842 51.8942 52.4508 51.93 52.42L64.76 36.09C65.0036 35.7775 65.1833 35.42 65.2887 35.038C65.3942 34.656 65.4233 34.257 65.3746 33.8638C65.3258 33.4705 65.2001 33.0907 65.0046 32.746C64.809 32.4014 64.5475 32.0986 64.235 31.855C63.9225 31.6114 63.565 31.4317 63.183 31.3263C62.801 31.2208 62.402 31.1917 62.0088 31.2404C61.6155 31.2892 61.2357 31.4149 60.891 31.6104C60.5464 31.8059 60.2436 32.0675 60 32.38L52.54 41.89V5C52.54 4.20435 52.2239 3.44129 51.6613 2.87868C51.0987 2.31607 50.3357 2 49.54 2C48.7444 2 47.9813 2.31607 47.4187 2.87868C46.8561 3.44129 46.54 4.20435 46.54 5V41.89L39.11 32.38Z" fill="#01211F" stroke="black" stroke-width="4"/>
</svg>
