<svg width="417" height="332" viewBox="0 0 417 332" fill="none" xmlns="http://www.w3.org/2000/svg">
<g clip-path="url(#clip0_2607_224)">
<path d="M307.019 386.657C357.433 346.094 394.626 308.642 390.092 303.006C385.557 297.37 341.012 325.684 290.597 366.248C240.183 406.811 202.99 444.263 207.525 449.899C212.059 455.534 256.604 427.22 307.019 386.657Z" fill="#01211F"/>
<path d="M381.88 292.803L370.541 301.926L378.752 312.131L390.09 303.008L381.88 292.803Z" fill="#01211F"/>
<path d="M298.803 376.454C349.217 335.89 386.41 298.438 381.875 292.803C377.341 287.167 332.796 315.481 282.381 356.044C231.967 396.607 194.774 434.059 199.308 439.695C203.843 445.331 248.388 417.017 298.803 376.454Z" fill="#04B0A4"/>
<g opacity="0.42">
<path d="M235.49 283.128C236.55 284.444 238.041 285.342 239.7 285.666C241.359 285.989 243.078 285.716 244.555 284.896C280.683 265.004 327.03 273.251 353.818 306.537L363.627 318.73C323.935 361.107 278.475 397.687 228.585 427.391L218.772 415.2C192.004 381.93 193.81 334.919 221 303.852C222.119 302.582 222.752 300.958 222.789 299.266C222.826 297.575 222.263 295.925 221.201 294.608C220.14 293.292 218.649 292.394 216.991 292.07C215.332 291.747 213.613 292.02 212.135 292.84C175.968 312.751 129.66 304.457 102.888 271.189L93.0902 259.001L228.131 150.34L237.945 162.531C264.732 195.827 262.881 242.858 235.699 273.895C234.582 275.163 233.949 276.784 233.911 278.474C233.872 280.163 234.431 281.811 235.49 283.128Z" fill="#ABD9D5"/>
</g>
<path d="M167.744 213.562C218.158 172.999 255.351 135.547 250.816 129.911C246.282 124.275 201.737 152.589 151.322 193.153C100.908 233.716 63.715 271.168 68.2496 276.804C72.7842 282.439 117.329 254.125 167.744 213.562Z" fill="#01211F"/>
<path d="M71.376 257.475L60.0375 266.597L68.2481 276.802L79.5866 267.679L71.376 257.475Z" fill="#01211F"/>
<path d="M242.608 119.706L231.27 128.829L239.48 139.033L250.819 129.91L242.608 119.706Z" fill="#01211F"/>
<path d="M159.535 203.354C209.95 162.791 247.143 125.339 242.608 119.703C238.073 114.068 193.528 142.382 143.114 182.945C92.6994 223.508 55.5064 260.96 60.041 266.596C64.5756 272.232 109.121 243.918 159.535 203.354Z" fill="#04B0A4"/>
<path d="M215.233 191.581L228.045 181.275C228.045 181.275 241.13 197.764 236.647 213.587C232.974 203.765 226.441 193.94 215.233 191.581Z" fill="white"/>
<path d="M352.754 321.405L233.525 417.349L224.257 405.844C198.772 374.184 202.627 328.421 232.279 301.393L225.434 292.871C223.517 290.464 220.841 288.776 217.842 288.084C214.843 287.391 211.699 287.734 208.919 289.056C194.692 295.94 178.856 298.809 163.118 297.352C147.38 295.895 132.339 290.167 119.618 280.788C118.977 280.313 118.506 279.644 118.275 278.88C118.043 278.117 118.065 277.299 118.335 276.548C118.605 275.797 119.11 275.154 119.775 274.713C120.44 274.272 121.23 274.057 122.027 274.1L215.748 279.421C220.906 279.713 225.753 281.98 229.282 285.753L238.859 296.009C254.739 284.419 274.475 279.395 293.964 281.981C313.453 284.567 331.196 294.563 343.506 309.893L352.754 321.405Z" fill="#FFD05E"/>
<path d="M150.406 307.466C132.794 345.809 131.074 380.175 148.989 393.852C174.038 412.977 227.985 384.424 269.484 330.069C310.984 275.713 324.318 216.155 299.269 197.031" stroke="white" stroke-width="7" stroke-miterlimit="10"/>
<path d="M285.604 186.84L295.756 211.817C295.795 211.914 295.858 211.999 295.94 212.063C296.022 212.127 296.12 212.169 296.223 212.183C296.326 212.197 296.431 212.184 296.528 212.144C296.624 212.105 296.708 212.04 296.771 211.958L313.328 190.678C313.391 190.596 313.432 190.499 313.446 190.396C313.459 190.293 313.446 190.189 313.407 190.093C313.368 189.997 313.304 189.913 313.222 189.849C313.14 189.785 313.043 189.744 312.941 189.729L286.235 186.03C286.132 186.016 286.027 186.029 285.931 186.068C285.834 186.108 285.75 186.171 285.686 186.253C285.622 186.336 285.581 186.433 285.566 186.536C285.552 186.639 285.565 186.744 285.604 186.84Z" fill="white"/>
<path d="M93.7782 161.599C106.901 156.823 113.667 142.314 108.89 129.191C104.114 116.069 89.6045 109.303 76.482 114.079C63.3596 118.855 56.5936 133.365 61.3698 146.487C66.1459 159.61 80.6557 166.376 93.7782 161.599Z" fill="#FFD05E"/>
<path d="M68.0132 132.667C68.0132 132.667 90.1929 125.371 102.55 141.853C102.55 141.853 106.046 128.023 91.2641 121.051C76.482 114.079 68.0132 132.667 68.0132 132.667Z" fill="#B89544"/>
<path d="M91.2443 154.638C100.522 151.261 105.306 141.002 101.929 131.725C98.552 122.447 88.2935 117.663 79.0158 121.04C69.7382 124.417 64.9545 134.676 68.3313 143.953C71.7081 153.231 81.9666 158.015 91.2443 154.638Z" stroke="black" stroke-width="4" stroke-miterlimit="10"/>
<path d="M131.566 107.805C144.688 103.028 151.454 88.5186 146.678 75.3961C141.902 62.2736 127.392 55.5076 114.269 60.2838C101.147 65.06 94.381 79.5698 99.1572 92.6922C103.933 105.815 118.443 112.581 131.566 107.805Z" fill="#FFD05E"/>
<path d="M105.791 78.8707C105.791 78.8707 127.972 71.5788 140.328 88.0567C140.328 88.0567 143.824 74.2264 129.042 67.2545C114.26 60.2826 105.791 78.8707 105.791 78.8707Z" fill="#B89544"/>
<path d="M129.032 100.843C138.309 97.4661 143.093 87.2076 139.716 77.9299C136.339 68.6522 126.081 63.8686 116.803 67.2454C107.526 70.6222 102.742 80.8807 106.119 90.1584C109.496 99.436 119.754 104.22 129.032 100.843Z" stroke="black" stroke-width="4" stroke-miterlimit="10"/>
<path d="M165.312 178.899L130.214 204.708L133.176 210.48L170.158 183.653L165.312 178.899Z" fill="black"/>
<path d="M142.461 201.243C155.583 196.467 162.349 181.957 157.573 168.834C152.797 155.712 138.287 148.946 125.165 153.722C112.042 158.498 105.276 173.008 110.053 186.13C114.829 199.253 129.338 206.019 142.461 201.243Z" fill="#FFD05E"/>
<path d="M116.7 172.309C116.7 172.309 138.88 165.013 151.233 181.496C151.233 181.496 154.733 167.664 139.947 160.694C125.161 153.724 116.7 172.309 116.7 172.309Z" fill="#B89544"/>
<path d="M139.927 194.281C149.205 190.905 153.988 180.646 150.612 171.368C147.235 162.091 136.976 157.307 127.699 160.684C118.421 164.061 113.637 174.319 117.014 183.597C120.391 192.875 130.649 197.658 139.927 194.281Z" stroke="black" stroke-width="4" stroke-miterlimit="10"/>
</g>
<defs>
<clipPath id="clip0_2607_224">
<rect width="297.861" height="400" fill="white" transform="translate(0 101.875) rotate(-20)"/>
</clipPath>
</defs>
</svg>
