<svg width="486" height="238" viewBox="0 0 486 238" fill="none" xmlns="http://www.w3.org/2000/svg">
<g clip-path="url(#clip0_2607_254)">
<path d="M163.995 148.277C224.332 171.656 275.362 185.14 277.976 178.395C280.589 171.65 233.796 147.23 173.46 123.851C113.124 100.473 62.0931 86.9887 59.4796 93.7337C56.8661 100.479 103.659 124.899 163.995 148.277Z" fill="#01211F"/>
<path d="M77.7782 86.7751L64.2083 81.5171L59.4761 93.73L73.046 98.988L77.7782 86.7751Z" fill="#01211F"/>
<path d="M282.706 166.182L269.136 160.924L264.404 173.137L277.973 178.395L282.706 166.182Z" fill="#01211F"/>
<path d="M168.724 136.06C229.06 159.439 280.091 172.923 282.704 166.178C285.318 159.433 238.524 135.013 178.188 111.634C117.852 88.2558 66.8215 74.7716 64.208 81.5167C61.5944 88.2617 108.388 112.682 168.724 136.06Z" fill="#04B0A4"/>
<g opacity="0.42">
<path d="M217.89 34.5671C217.281 36.1433 217.248 37.884 217.797 39.482C218.346 41.0801 219.442 42.4328 220.891 43.3017C256.182 64.6437 272.213 108.905 256.781 148.747L251.126 163.338C194.58 150.152 140.172 129.072 89.502 100.719L95.1533 86.1251C110.582 46.3084 152.197 24.3672 192.698 32.3802C194.356 32.7142 196.08 32.4509 197.563 31.637C199.046 30.823 200.194 29.5108 200.803 27.9323C201.412 26.3561 201.445 24.6154 200.896 23.0174C200.347 21.4194 199.251 20.0666 197.802 19.1977C162.474 -2.16918 146.503 -46.4197 161.929 -86.2392L167.584 -100.818L329.208 -38.1995L323.557 -23.6053C308.115 16.2406 266.46 38.154 225.99 30.1322C224.334 29.7987 222.613 30.0607 221.131 30.8721C219.649 31.6835 218.501 32.992 217.89 34.5671Z" fill="#ABD9D5"/>
</g>
<path d="M287.043 -28.7495L302.374 -22.8069C302.374 -22.8069 294.637 -3.23053 278.693 0.798361C285.363 -7.29377 290.604 -17.8637 287.043 -28.7495Z" fill="white"/>
<path d="M139.295 70.8036L123.981 64.8751C123.981 64.8751 116.509 84.5531 125.577 98.2746C126.084 87.7724 129.337 76.4403 139.295 70.8036Z" fill="white"/>
<path d="M243.372 155.259L100.669 99.9762L105.998 86.1967C120.674 48.2965 162.234 28.7538 200.467 40.9192L204.425 30.7299C205.55 27.8656 205.673 24.7045 204.774 21.7613C203.874 18.8181 202.005 16.266 199.471 14.5202C186.395 5.64158 175.993 -6.63935 169.386 -20.9972C162.779 -35.3551 160.218 -51.2446 161.981 -66.9511C162.071 -67.7439 162.415 -68.4864 162.961 -69.0684C163.507 -69.6504 164.226 -70.041 165.011 -70.1823C165.796 -70.3235 166.606 -70.2078 167.321 -69.8524C168.035 -69.497 168.616 -68.9207 168.977 -68.2092L211.229 15.6167C213.555 20.2291 214.015 25.5604 212.513 30.5029L208.419 43.9247C226.396 51.883 240.615 66.4629 248.12 84.6338C255.626 102.805 255.84 123.169 248.719 141.494L243.372 155.259Z" fill="#FFD05E"/>
<path d="M154.271 -26.9483C112.258 -23.0293 81.6368 -7.33657 78.7491 15.0175C74.7115 46.2728 126.412 78.7153 194.235 87.4774C262.058 96.2394 320.304 78.0082 324.342 46.7529" stroke="white" stroke-width="7" stroke-miterlimit="10"/>
<path d="M326.334 29.8231L309.78 51.104C309.715 51.1857 309.674 51.2831 309.659 51.3862C309.644 51.4893 309.657 51.5945 309.697 51.6909C309.736 51.7874 309.8 51.8718 309.882 51.9354C309.965 51.9991 310.063 52.0398 310.166 52.0533L336.873 55.7524C336.975 55.7659 337.08 55.7523 337.176 55.7129C337.272 55.6734 337.356 55.6095 337.419 55.5276C337.483 55.4456 337.524 55.3485 337.538 55.2457C337.552 55.143 337.539 55.0383 337.501 54.9422L327.351 29.965C327.312 29.8687 327.248 29.7843 327.166 29.7204C327.084 29.6565 326.987 29.6153 326.884 29.6009C326.78 29.5865 326.675 29.5995 326.579 29.6385C326.483 29.6775 326.398 29.7411 326.334 29.8231Z" fill="white"/>
</g>
<defs>
<clipPath id="clip0_2607_254">
<rect width="297.861" height="400" fill="white" transform="translate(257.115 -260) rotate(40)"/>
</clipPath>
</defs>
</svg>
