<svg width="107" height="30" viewBox="0 0 107 30" fill="none" xmlns="http://www.w3.org/2000/svg">
<path d="M23.4894 11.1081C23.4894 8.13662 21.632 6.21363 18.2898 6.21363C15.7564 6.21363 13.7645 7.32772 12.5831 9.28517L14.2042 0H8.80114L7.56071 7.0012H3.42759L1.93448 11.7381H6.72719L6.42037 13.4544H1.49803L0 18.1831H5.57865L4.61387 23.6354H10.017L11.469 15.4643C11.9777 12.6619 13.63 10.7701 15.8581 10.7701C17.0067 10.7701 17.7828 11.2771 17.7828 12.3239C17.7828 13.9105 15.9943 15.3626 13.9335 15.3626L13.4544 18.5031C15.379 19.1102 16.3586 21.0692 16.3241 23.6354H22.5443C22.6039 22.3778 22.3622 21.1242 21.8394 19.9789C21.3165 18.8336 20.5276 17.8297 19.5384 17.051C21.9028 15.9369 23.4894 13.8433 23.4894 11.1081Z" fill="white"/>
<path d="M36.7157 9.18848H28.5791C27.98 9.18842 27.4001 9.39914 26.9408 9.78372C26.4815 10.1683 26.1722 10.7022 26.067 11.292L23.8471 23.6979L28.6956 23.6339L30.3216 14.5473C30.378 14.2321 30.544 13.947 30.7901 13.7423C31.0363 13.5375 31.3469 13.4263 31.667 13.4282H35.9823L36.7157 9.18848Z" fill="white"/>
<path d="M35.6853 23.6994L40.5338 23.6354L43.1164 9.18994H38.281L35.6853 23.6994Z" fill="white"/>
<path d="M38.6404 7.21778H43.4938L44.1271 3.62939H39.2819L38.6404 7.21778Z" fill="white"/>
<path d="M56.2147 9.18844L55.8866 11.0228C55.0235 9.54285 53.5228 8.80231 51.3843 8.80122C49.9675 8.79087 48.5787 9.19525 47.389 9.96453C46.1673 10.7497 45.1709 11.8394 44.4979 13.1263C43.7728 14.4945 43.4027 16.0228 43.4216 17.5712C43.4034 18.7329 43.6729 19.8811 44.2059 20.9134C44.7061 21.8869 45.4699 22.7001 46.4103 23.26C47.3506 23.82 48.4295 24.1042 49.5236 24.0802C51.3318 24.0802 52.7888 23.4386 53.8947 22.1555L53.6305 23.6322H58.4675L61.0518 9.19337L56.2147 9.18844ZM54.4197 18.1438C54.0846 18.9 53.5525 19.5522 52.879 20.0324C52.2138 20.5061 51.415 20.7556 50.5984 20.7444C49.6697 20.7444 48.9335 20.4442 48.3899 19.8437C47.8462 19.2431 47.5728 18.3806 47.5695 17.2562C47.565 16.3897 47.7486 15.5327 48.1077 14.7441C48.4413 13.9913 48.9676 13.3399 49.6336 12.8556C50.2942 12.3786 51.0914 12.1282 51.9061 12.1418C52.8358 12.1418 53.5769 12.4421 54.1293 13.0426C54.6817 13.6432 54.9606 14.5062 54.9661 15.6318C54.9708 16.4988 54.7872 17.3564 54.4279 18.1455" fill="white"/>
<path d="M74.9836 12.2337C75.4547 13.2881 75.6894 14.4328 75.6711 15.5875C75.6939 17.1306 75.3751 18.6597 74.7375 20.0651C74.1785 21.3214 73.2922 22.4043 72.1713 23.2007C71.1171 23.9488 69.8543 24.3466 68.5616 24.3377C67.4907 24.3377 66.6096 24.1239 65.9183 23.6962C65.2456 23.2884 64.6983 22.7031 64.3366 22.0045L63.1175 29.9984H60.3249L63.5654 9.22944H66.2333L65.9757 11.2131C67.0816 9.77473 68.4905 9.05497 70.2024 9.05388C71.2119 9.04086 72.2014 9.33561 73.0393 9.89888C73.8925 10.4806 74.5659 11.2893 74.9836 12.2337ZM72.2615 18.6803C72.6295 17.805 72.8191 16.8651 72.8194 15.9156C72.8194 14.5735 72.5301 13.5425 71.9514 12.8227C71.3728 12.103 70.5819 11.7437 69.5789 11.7448C68.7067 11.7291 67.8573 12.0233 67.1817 12.575C66.483 13.152 65.9394 13.8941 65.6 14.7343C65.2315 15.6065 65.0423 16.5439 65.0438 17.4908C65.0438 18.8329 65.3331 19.8688 65.9117 20.5984C66.1881 20.9537 66.545 21.2382 66.9529 21.4285C67.3609 21.6188 67.8082 21.7094 68.258 21.6928C69.1341 21.7066 69.9873 21.4122 70.6683 20.8609C71.3768 20.2819 71.9253 19.5313 72.2615 18.6803Z" fill="white"/>
<path d="M89.4077 24.1653H86.725L87.0236 22.2095C86.5393 22.8557 85.92 23.3887 85.2089 23.7715C84.3837 24.1853 83.4654 24.3786 82.5434 24.3326C81.6214 24.2866 80.7269 24.0029 79.947 23.509C79.1009 22.9357 78.4319 22.1372 78.0158 21.2037C77.5455 20.1641 77.3108 19.0335 77.3283 17.8926C77.307 16.3387 77.6304 14.7994 78.275 13.3854C78.8357 12.1182 79.7209 11.0213 80.8412 10.2056C81.8851 9.45039 83.1428 9.04802 84.4312 9.05703C85.5196 9.05703 86.4094 9.2758 87.1007 9.71334C87.7778 10.1352 88.3252 10.736 88.6825 11.4493L89.0484 9.2326H91.7409L89.4077 24.1653ZM87.3994 18.6802C87.766 17.8046 87.9551 16.8648 87.9556 15.9155C87.9556 14.5733 87.6663 13.5424 87.0876 12.8226C86.509 12.1029 85.7269 11.7435 84.7413 11.7446C83.8654 11.7304 83.0123 12.0242 82.331 12.5749C81.626 13.1485 81.0779 13.8913 80.7378 14.7341C80.3682 15.606 80.1784 16.5436 80.18 17.4906C80.18 18.8328 80.4693 19.8687 81.0479 20.5983C81.3244 20.9535 81.6813 21.2379 82.0892 21.4282C82.4971 21.6185 82.9444 21.7091 83.3942 21.6927C84.274 21.7066 85.1304 21.4097 85.8127 20.8542C86.5173 20.2757 87.0633 19.5276 87.3994 18.6802Z" fill="white"/>
<path d="M97.9545 20.7527L103.369 9.22949H106.437L97.7018 26.6217C97.3721 27.3218 96.9881 27.9949 96.5533 28.635C96.2569 29.0654 95.8635 29.42 95.4047 29.6703C94.9033 29.9091 94.3519 30.0244 93.7968 30.0067H90.8056L91.2208 27.2338H93.0863C93.6223 27.2338 94.0374 27.1271 94.3317 26.9138C94.6259 26.7005 94.9284 26.2821 95.239 25.6586L95.9134 24.2886L93.1651 9.22949H96.0939L97.9545 20.7527Z" fill="white"/>
</svg>
