<svg width="120" height="33" viewBox="0 0 120 33" fill="none" xmlns="http://www.w3.org/2000/svg">
<g clip-path="url(#clip0_2915_237)">
<path d="M38.6751 10.1567H29.6861C29.3733 10.1424 29.061 10.1924 28.7682 10.3034C28.4755 10.4143 28.2085 10.584 27.9838 10.802C27.7591 11.02 27.5813 11.2817 27.4615 11.5709C27.3416 11.8601 27.2822 12.1708 27.2869 12.4839L27.1909 26.1913L32.5411 26.1273L32.6371 16.0827C32.6337 15.9169 32.6643 15.7522 32.7269 15.5987C32.7895 15.4452 32.8828 15.3061 33.0012 15.19C33.1195 15.0739 33.2604 14.9832 33.4151 14.9236C33.5698 14.8639 33.735 14.8365 33.9007 14.8431H38.6991L38.6751 10.1567Z" fill="white"/>
<path d="M40 26.0426L45.3502 25.9627L45.5022 10H40.1519L40 26.0426Z" fill="white"/>
<path d="M40.4345 7.97333H45.8007L45.8247 4.01465H40.4745L40.4345 7.97333Z" fill="white"/>
<path d="M60.2279 10.1566V12.1879C59.5968 11.3692 58.7749 10.7175 57.8339 10.2895C56.893 9.86154 55.8616 9.67039 54.8297 9.73272C53.3293 9.69849 51.8575 10.147 50.6311 11.0123C49.4092 11.8795 48.4847 13.1028 47.984 14.5151C47.4324 16.0914 47.3082 17.7856 47.6241 19.4255C47.8396 20.7535 48.3507 22.0162 49.1196 23.1203C49.8567 24.1911 50.8381 25.0711 51.9827 25.6874C53.0942 26.309 54.348 26.6314 55.6215 26.6231C56.4862 26.6794 57.351 26.5135 58.1335 26.1411C58.916 25.7688 59.5902 25.2024 60.092 24.4958V26.0953H65.4182L65.5702 10.1006L60.2279 10.1566ZM59.924 20.0573C59.6989 20.8755 59.2269 21.6043 58.5725 22.1446C57.8406 22.6815 56.9478 22.9534 56.0409 22.9156C55.1339 22.8778 54.2668 22.5326 53.5821 21.9366C52.8136 21.164 52.3265 20.1559 52.1986 19.0736C52.0262 18.1511 52.07 17.2012 52.3266 16.2985C52.5373 15.4799 53.0021 14.7492 53.6541 14.2112C54.3311 13.6638 55.1833 13.3798 56.0533 13.4115C57.0112 13.3949 57.9389 13.7471 58.6445 14.3952C59.4193 15.162 59.9124 16.168 60.044 17.2502C60.2186 18.1828 60.1775 19.143 59.924 20.0573Z" fill="white"/>
<path d="M83.1723 14.0194C83.8561 15.3969 84.1937 16.9204 84.156 18.4579C84.1875 19.9742 83.8499 21.4755 83.1723 22.8324C82.5596 24.0498 81.6103 25.0657 80.4372 25.7594C79.2231 26.4609 77.8405 26.8176 76.4385 26.7911C75.3511 26.8155 74.2728 26.5883 73.2876 26.1273C72.4421 25.7097 71.7159 25.0852 71.1763 24.3119V32.965H67.7374V10.3086H70.7284L71.1443 12.7078C71.7495 11.8729 72.5498 11.1988 73.4754 10.7443C74.401 10.2899 75.4238 10.0689 76.4545 10.1007C77.8523 10.075 79.2319 10.4199 80.4532 11.1003C81.625 11.7871 82.5703 12.8018 83.1723 14.0194ZM80.6611 18.4579C80.7263 17.0327 80.2555 15.6347 79.3416 14.5392C78.8989 14.0691 78.3648 13.6945 77.772 13.4385C77.1793 13.1824 76.5404 13.0504 75.8947 13.0504C75.249 13.0504 74.6101 13.1824 74.0174 13.4385C73.4246 13.6945 72.8905 14.0691 72.4479 14.5392C71.5601 15.6217 71.1069 16.9957 71.1763 18.3939C71.1043 19.8417 71.5684 21.2653 72.4798 22.3926C72.9003 22.8906 73.4282 23.2868 74.0238 23.5513C74.6194 23.8159 75.2673 23.942 75.9187 23.9201C76.5655 23.9343 77.2074 23.8047 77.798 23.5405C78.3886 23.2764 78.9131 22.8842 79.3336 22.3926C80.2472 21.2906 80.7176 19.8879 80.6531 18.4579H80.6611Z" fill="white"/>
<path d="M101.942 26.5991H98.919L98.5431 24.12C97.9673 24.9265 97.2152 25.5911 96.3439 26.0633C95.3827 26.5664 94.3095 26.8168 93.2249 26.7911C91.827 26.8183 90.4469 26.4732 89.2263 25.7914C88.0507 25.1125 87.0977 24.1068 86.4832 22.8964C85.8012 21.5182 85.4637 19.9951 85.4995 18.4578C85.4691 16.9372 85.8123 15.4323 86.4992 14.0753C87.1302 12.863 88.0853 11.8497 89.2582 11.1483C90.454 10.4517 91.8173 10.095 93.2009 10.1166C94.2911 10.091 95.3715 10.3269 96.3519 10.8044C97.2205 11.2428 97.9655 11.8917 98.5192 12.6918L98.927 10.2926H101.918L101.942 26.5991ZM98.5431 18.5218C98.604 17.0888 98.1374 15.6832 97.2316 14.5711C96.7968 14.0921 96.2666 13.7092 95.6751 13.4472C95.0835 13.1852 94.4437 13.0499 93.7967 13.0499C93.1498 13.0499 92.5099 13.1852 91.9184 13.4472C91.3269 13.7092 90.7967 14.0921 90.3619 14.5711C89.4615 15.6671 88.9973 17.0568 89.0583 18.4738C88.9986 19.8969 89.4656 21.2921 90.3699 22.3925C90.8079 22.8662 91.3392 23.2442 91.9303 23.5026C92.5214 23.7611 93.1596 23.8946 93.8047 23.8946C94.4499 23.8946 95.0881 23.7611 95.6792 23.5026C96.2703 23.2442 96.8015 22.8662 97.2396 22.3925C98.1392 21.3086 98.6038 19.9291 98.5431 18.5218Z" fill="white"/>
<path d="M111.915 22.8804L116.337 10.3086H120L112.618 29.1503C112.33 29.925 111.977 30.6741 111.563 31.3896C111.269 31.8785 110.856 32.2856 110.363 32.5732C109.78 32.8615 109.133 32.9964 108.484 32.965H104.797V29.942H107.196C107.673 29.9896 108.152 29.8831 108.564 29.6382C108.933 29.2568 109.207 28.7937 109.364 28.2866L110.027 26.7271L103.629 10.3086H107.292L111.915 22.8804Z" fill="white"/>
<path d="M25.7194 26.1273H18.8497C18.4099 23.2882 16.9543 21.121 14.7151 20.4492L14.6511 16.9783C16.9304 16.9783 18.6498 15.3789 18.3379 13.6195C18.138 12.4678 17.1863 11.908 15.9387 11.908C13.4755 11.908 11.996 13.9953 11.94 17.0903L11.86 26.1273H5.90203L5.95002 20.0973H0V14.859H5.99V12.9717H0V7.74142H6.04598L6.10197 0H12.076L11.996 10.2606C12.9397 8.1013 14.931 6.86971 17.7301 6.86971C21.4249 6.86971 23.8401 8.997 24.3919 12.2759C24.672 13.5782 24.5028 14.9371 23.9117 16.1309C23.3206 17.3247 22.3425 18.283 21.137 18.8497C22.364 19.6784 23.4051 20.7534 24.194 22.0063C24.9829 23.2592 25.5024 24.6627 25.7194 26.1273Z" fill="white"/>
<path d="M2.63912 20.0974H0V20.1134H2.63912V20.0974Z" fill="white"/>
</g>
<defs>
<clipPath id="clip0_2915_237">
<rect width="120" height="32.965" fill="white"/>
</clipPath>
</defs>
</svg>
