<svg width="12" height="12" viewBox="0 0 12 12" fill="none" xmlns="http://www.w3.org/2000/svg">
<path d="M9.66936 5.25005L9.68414 5.2498C9.83353 5.2498 9.95308 5.3317 10.0038 5.46899C10.0567 5.61099 10.0195 5.77583 9.91438 5.87647C9.90075 5.89523 9.88582 5.91223 9.86927 5.92796C7.56204 8.13365 4.97296 10.1022 2.51891 11.9295C2.45692 11.9756 2.38766 12 2.31868 12C2.14839 12 2.00194 11.853 1.98121 11.6635C1.95612 11.5503 1.98429 11.4385 2.06146 11.3478C3.0911 10.1375 4.01086 8.68967 4.9475 6.80362C4.22916 6.78834 3.51796 6.78693 2.84715 6.78693C2.6945 6.78693 2.57166 6.70378 2.51878 6.56465C2.46339 6.41909 2.50194 6.2486 2.61243 6.15003C2.61243 6.15003 2.61738 6.14297 2.62527 6.1359C4.32661 4.59036 5.75481 3.15425 6.99112 1.74589C7.42039 1.21988 7.93002 0.708587 8.64047 0.0918521C8.7096 0.031704 8.79225 0 8.87917 0C9.02779 0 9.17247 0.0965554 9.23125 0.23457C9.27876 0.346281 9.26296 0.465183 9.19029 0.559897L9.18487 0.579308L9.18081 0.59409C8.98242 1.34692 8.64679 2.10406 8.32201 2.83617L8.32115 2.83813C7.96267 3.64671 7.59284 4.4809 7.40205 5.32043C7.7339 5.30893 8.1244 5.29736 8.51182 5.28599C8.92656 5.27399 9.33776 5.26195 9.66936 5.25005Z" fill="#009F40"/>
</svg>
