<svg width="85" height="24" viewBox="0 0 85 24" fill="none" xmlns="http://www.w3.org/2000/svg">
<g clip-path="url(#clip0_3086_1252)">
<path d="M27.3949 7.19406H21.0277C20.8061 7.18399 20.5849 7.21935 20.3775 7.29796C20.1701 7.37658 19.981 7.49679 19.8219 7.65119C19.6627 7.8056 19.5368 7.99094 19.4519 8.19582C19.367 8.40069 19.3249 8.62077 19.3282 8.84251L19.2602 18.5519L23.05 18.5066L23.118 11.3917C23.1156 11.2742 23.1372 11.1576 23.1815 11.0488C23.2259 10.9401 23.292 10.8416 23.3758 10.7593C23.4597 10.6771 23.5594 10.6129 23.669 10.5706C23.7786 10.5284 23.8956 10.509 24.013 10.5136H27.4119L27.3949 7.19406Z" fill="#0A3C43"/>
<path d="M28.5108 18.5579L32.3006 18.5012L32.4082 7.19434H28.6185L28.5108 18.5579Z" fill="#0A3C43"/>
<path d="M28.6411 5.64782H32.4422L32.4592 2.84375H28.6694L28.6411 5.64782Z" fill="#0A3C43"/>
<path d="M42.6614 7.19414V8.63299C42.2144 8.0531 41.6322 7.59144 40.9657 7.2883C40.2992 6.98516 39.5686 6.84976 38.8377 6.89391C37.7749 6.86966 36.7324 7.18738 35.8637 7.80027C34.9982 8.41458 34.3434 9.28108 33.9887 10.2814C33.598 11.398 33.51 12.5981 33.7338 13.7596C33.8864 14.7003 34.2484 15.5947 34.7931 16.3767C35.3152 17.1352 36.0103 17.7586 36.8211 18.1951C37.6084 18.6354 38.4965 18.8638 39.3985 18.8579C40.0111 18.8978 40.6236 18.7803 41.1779 18.5165C41.7322 18.2528 42.2097 17.8516 42.5651 17.3511V18.484H46.3379L46.4455 7.15449L42.6614 7.19414ZM42.4462 14.2071C42.2867 14.7867 41.9524 15.303 41.4888 15.6856C40.9704 16.0659 40.338 16.2585 39.6956 16.2318C39.0532 16.205 38.439 15.9605 37.954 15.5384C37.4097 14.991 37.0646 14.277 36.974 13.5104C36.8519 12.8569 36.8829 12.1841 37.0646 11.5447C37.2139 10.9648 37.5432 10.4472 38.005 10.0662C38.4845 9.67844 39.0882 9.47723 39.7044 9.4997C40.383 9.48795 41.04 9.7374 41.5398 10.1965C42.0887 10.7397 42.438 11.4523 42.5312 12.2188C42.6548 12.8794 42.6257 13.5595 42.4462 14.2071Z" fill="#0A3C43"/>
<path d="M58.9137 9.93021C59.398 10.906 59.6372 11.9851 59.6105 13.0742C59.6328 14.1482 59.3937 15.2117 58.9137 16.1728C58.4797 17.0351 57.8073 17.7547 56.9764 18.2461C56.1164 18.743 55.137 18.9957 54.144 18.9769C53.3737 18.9941 52.6099 18.8332 51.912 18.5067C51.3132 18.2108 50.7988 17.7685 50.4165 17.2208V23.3501H47.9807V7.30175H50.0993L50.3939 9.00119C50.8225 8.40978 51.3894 7.93229 52.0451 7.61039C52.7007 7.28848 53.4252 7.13196 54.1553 7.15447C55.1454 7.1363 56.1226 7.38061 56.9877 7.86257C57.8177 8.34901 58.4873 9.06778 58.9137 9.93021ZM57.135 13.0742C57.1811 12.0646 56.8477 11.0744 56.2003 10.2984C55.8867 9.96544 55.5084 9.70011 55.0885 9.51876C54.6687 9.3374 54.2161 9.24384 53.7588 9.24384C53.3014 9.24384 52.8489 9.3374 52.429 9.51876C52.0091 9.70011 51.6308 9.96544 51.3172 10.2984C50.6884 11.0652 50.3674 12.0384 50.4165 13.0288C50.3655 14.0544 50.6943 15.0628 51.3399 15.8612C51.6377 16.214 52.0116 16.4946 52.4335 16.682C52.8554 16.8694 53.3144 16.9587 53.7758 16.9432C54.2339 16.9533 54.6886 16.8615 55.1069 16.6744C55.5252 16.4873 55.8968 16.2095 56.1946 15.8612C56.8418 15.0807 57.175 14.0871 57.1293 13.0742H57.135Z" fill="#0A3C43"/>
<path d="M72.2089 18.841H70.0676L69.8014 17.0849C69.3935 17.6562 68.8608 18.127 68.2436 18.4614C67.5628 18.8178 66.8025 18.9952 66.0343 18.9769C65.0441 18.9962 64.0666 18.7518 63.2019 18.2688C62.3693 17.788 61.6942 17.0756 61.2589 16.2182C60.7759 15.242 60.5368 14.1632 60.5621 13.0742C60.5406 11.9971 60.7837 10.9312 61.2702 9.96995C61.7172 9.11125 62.3938 8.39349 63.2246 7.89664C64.0716 7.40326 65.0372 7.15058 66.0173 7.16588C66.7895 7.14776 67.5548 7.31481 68.2492 7.65305C68.8645 7.9636 69.3923 8.42319 69.7844 8.98994L70.0733 7.29051H72.1919L72.2089 18.841ZM69.8014 13.1196C69.8445 12.1045 69.514 11.1089 68.8724 10.3212C68.5644 9.98181 68.1888 9.71063 67.7698 9.52506C67.3508 9.33949 66.8976 9.24362 66.4394 9.24362C65.9811 9.24362 65.5279 9.33949 65.1089 9.52506C64.6899 9.71063 64.3143 9.98181 64.0063 10.3212C63.3686 11.0975 63.0398 12.0818 63.083 13.0856C63.0407 14.0936 63.3714 15.0818 64.012 15.8613C64.3223 16.1968 64.6986 16.4645 65.1173 16.6476C65.536 16.8307 65.988 16.9253 66.445 16.9253C66.902 16.9253 67.354 16.8307 67.7728 16.6476C68.1915 16.4645 68.5678 16.1968 68.878 15.8613C69.5152 15.0936 69.8443 14.1164 69.8014 13.1196Z" fill="#0A3C43"/>
<path d="M79.2729 16.2068L82.4055 7.30176H85L79.7714 20.648C79.5671 21.1967 79.317 21.7273 79.0237 22.2341C78.8153 22.5805 78.5231 22.8688 78.1739 23.0725C77.761 23.2768 77.3028 23.3723 76.8427 23.3501H74.2313V21.2088H75.9307C76.2683 21.2425 76.6078 21.167 76.8994 20.9935C77.1609 20.7234 77.3549 20.3954 77.4659 20.0362L77.936 18.9315L73.4042 7.30176H75.9987L79.2729 16.2068Z" fill="#0A3C43"/>
<path d="M18.2179 18.5068H13.3519C13.0403 16.4958 12.0093 14.9607 10.4232 14.4848L10.3779 12.0263C11.9923 12.0263 13.2103 10.8934 12.9893 9.64711C12.8477 8.83139 12.1736 8.43485 11.2899 8.43485C9.54515 8.43485 8.49717 9.91336 8.45751 12.1056L8.40087 18.5068H4.18061L4.2146 14.2356H0V10.5252H4.24292V9.18827H0V5.4835H4.28257L4.32223 0H8.55382L8.49717 7.26791C9.16561 5.73842 10.5761 4.86604 12.5588 4.86604C15.1759 4.86604 16.8867 6.37287 17.2776 8.69543C17.476 9.61791 17.3561 10.5804 16.9375 11.426C16.5188 12.2716 15.826 12.9505 14.972 13.3519C15.8411 13.9388 16.5786 14.7003 17.1374 15.5878C17.6962 16.4753 18.0642 17.4694 18.2179 18.5068Z" fill="#0A3C43"/>
<path d="M1.86938 14.2354H0V14.2467H1.86938V14.2354Z" fill="#0A3C43"/>
</g>
<defs>
<clipPath id="clip0_3086_1252">
<rect width="85" height="23.3502" fill="white"/>
</clipPath>
</defs>
</svg>
