<svg width="383" height="400" viewBox="0 0 383 400" fill="none" xmlns="http://www.w3.org/2000/svg">
<g clip-path="url(#clip0_2615_296)">
<path d="M172.589 222.813H112.319V400H172.589V222.813Z" fill="#06322F"/>
<path d="M284.913 95.8831V222.813H0V94.5121C0 83.0083 4.56987 71.9757 12.7043 63.8413C20.8387 55.7068 31.8714 51.137 43.3752 51.137H240.166C252.033 51.1384 263.414 55.8531 271.805 64.2444C280.196 72.6356 284.911 84.0161 284.913 95.8831Z" fill="#01211F"/>
<path d="M284.913 95.8831V222.813H195.42V95.8831C195.42 84.0157 200.135 72.6343 208.526 64.2428C216.918 55.8513 228.299 51.137 240.167 51.137C252.034 51.137 263.415 55.8513 271.807 64.2428C280.198 72.6343 284.913 84.0157 284.913 95.8831Z" fill="black"/>
<path d="M172.589 222.819L112.319 259.286V222.819H172.589Z" fill="black"/>
<path d="M149.762 102.274L115.514 51.137H95.4243L132.409 102.274H149.762Z" fill="black"/>
<path d="M149.762 0V102.274H132.409V32.418H110.953V0H149.762Z" fill="#FFD05E"/>
<path d="M284.913 210.944H195.42V222.813H284.913V210.944Z" fill="#013B37"/>
<path d="M284.912 95.883V222.813L274.638 210.944V95.883C274.638 84.902 270.6 74.3045 263.292 66.1084C255.984 57.9122 245.917 52.6898 235.008 51.4356C241.277 50.7079 247.63 51.3148 253.648 53.2164C259.666 55.118 265.214 58.2711 269.927 62.4689C274.64 66.6666 278.412 71.8139 280.994 77.5727C283.577 83.3315 284.912 89.5715 284.912 95.883Z" fill="#013B37"/>
<path d="M0 102.274V222.819H82.184L0 102.274Z" fill="black"/>
<path d="M382.439 216.881H195.42V228.75H382.439V216.881Z" fill="#01211F"/>
<path d="M303.061 94.8748H195.42V195.799H303.061V94.8748Z" fill="#CCCCCC"/>
<path d="M303.061 94.8694L226.014 145.334L195.42 125.298V94.8694H303.061Z" fill="#999999"/>
</g>
<defs>
<clipPath id="clip0_2615_296">
<rect width="382.439" height="400" fill="white"/>
</clipPath>
</defs>
</svg>
