<svg width="110" height="126" viewBox="0 0 110 126" fill="none" xmlns="http://www.w3.org/2000/svg">
<path d="M98.91 60.22H97.46V37.74C97.4574 35.231 96.4602 32.8253 94.6869 31.0502C92.9137 29.2751 90.5091 28.2753 88 28.27H59.77C59.376 28.27 58.9859 28.3476 58.6219 28.4984C58.258 28.6491 57.9273 28.8701 57.6487 29.1487C57.3701 29.4273 57.1491 29.758 56.9984 30.122C56.8476 30.4859 56.77 30.8761 56.77 31.27C56.77 31.664 56.8476 32.0541 56.9984 32.4181C57.1491 32.782 57.3701 33.1128 57.6487 33.3913C57.9273 33.6699 58.258 33.8909 58.6219 34.0417C58.9859 34.1924 59.376 34.27 59.77 34.27H88C88.9195 34.2727 89.8006 34.6391 90.4507 35.2893C91.1009 35.9395 91.4674 36.8205 91.47 37.74V60.22H71.93C68.727 60.2227 65.6559 61.4962 63.3911 63.7611C61.1262 66.026 59.8526 69.097 59.85 72.3V79.7C59.8526 82.903 61.1262 85.9741 63.3911 88.2389C65.6559 90.5038 68.727 91.7774 71.93 91.78H91.46V114.26C91.4574 115.178 91.0923 116.057 90.4443 116.707C89.7963 117.357 88.9178 117.725 88 117.73H11.47C10.5505 117.727 9.66943 117.361 9.01925 116.711C8.36907 116.061 8.00264 115.18 8 114.26V37.74C8.00264 36.8205 8.36907 35.9395 9.01925 35.2893C9.66943 34.6391 10.5505 34.2727 11.47 34.27H39.52C40.3157 34.27 41.0787 33.9539 41.6413 33.3913C42.2039 32.8287 42.52 32.0657 42.52 31.27C42.52 30.4744 42.2039 29.7113 41.6413 29.1487C41.0787 28.5861 40.3157 28.27 39.52 28.27H11.47C8.95921 28.2727 6.55202 29.2712 4.77662 31.0466C3.00123 32.822 2.00265 35.2292 2 37.74L2 114.26C2.00265 116.771 3.00123 119.178 4.77662 120.953C6.55202 122.729 8.95921 123.727 11.47 123.73H88C90.5108 123.727 92.918 122.729 94.6934 120.953C96.4688 119.178 97.4674 116.771 97.47 114.26V91.78H98.92C101.068 91.78 103.129 90.9266 104.648 89.4076C106.167 87.8885 107.02 85.8283 107.02 83.68V68.32C107.017 66.1708 106.162 64.1106 104.641 62.5918C103.12 61.0731 101.059 60.22 98.91 60.22ZM101 83.68C101 84.237 100.779 84.7711 100.385 85.1649C99.9911 85.5588 99.457 85.78 98.9 85.78H71.9C70.2883 85.7774 68.7434 85.136 67.6037 83.9963C66.4641 82.8567 65.8226 81.3117 65.82 79.7V72.3C65.8226 70.6883 66.4641 69.1434 67.6037 68.0037C68.7434 66.8641 70.2883 66.2227 71.9 66.22H98.9C99.457 66.22 99.9911 66.4413 100.385 66.8351C100.779 67.2289 101 67.7631 101 68.32V83.68Z" fill="#01211F" stroke="black" stroke-width="4"/>
<path d="M34.9 23.6902C35.526 24.1805 36.3211 24.4022 37.1106 24.3065C37.9 24.2109 38.6191 23.8058 39.11 23.1802L46.58 13.6802V50.5602C46.58 51.3558 46.8961 52.1189 47.4587 52.6815C48.0213 53.2441 48.7843 53.5602 49.58 53.5602C50.3756 53.5602 51.1387 53.2441 51.7013 52.6815C52.2639 52.1189 52.58 51.3558 52.58 50.5602V13.6802L60 23.1802C60.4993 23.7797 61.2126 24.1611 61.9885 24.2435C62.7644 24.3258 63.5419 24.1026 64.156 23.6212C64.77 23.1399 65.1724 22.4382 65.2777 21.6651C65.383 20.892 65.183 20.1082 64.72 19.4802L51.93 3.15016L51.83 3.00016C51.7417 2.90189 51.6483 2.80843 51.55 2.72016L51.36 2.60016C51.2463 2.51981 51.1259 2.44954 51 2.39016L50.8 2.28016C50.6611 2.21823 50.5173 2.16805 50.37 2.13016L50.22 2.07016C49.7951 1.97661 49.3549 1.97661 48.93 2.07016L48.76 2.13016C48.6127 2.16805 48.4689 2.21823 48.33 2.28016L48.13 2.39016C48.011 2.45054 47.8973 2.52079 47.79 2.60016L47.6 2.76016C47.5017 2.84843 47.4083 2.94189 47.32 3.04016L47.22 3.15016L34.39 19.4802C33.8997 20.1062 33.678 20.9013 33.7736 21.6907C33.8692 22.4801 34.2744 23.1993 34.9 23.6902Z" fill="#01211F" stroke="black" stroke-width="4"/>
</svg>
