<svg width="176" height="350" viewBox="0 0 176 350" fill="none" xmlns="http://www.w3.org/2000/svg">
<g opacity="0.1">
<g clip-path="url(#clip0_2626_467)">
<path d="M12.6586 350C-35.7504 329.319 -76.7631 296.162 -105.514 254.461C-134.264 212.761 -149.546 164.267 -149.546 114.734V85.679L12.6586 0L174.875 85.679V114.734C174.874 164.268 159.591 212.763 130.838 254.463C102.085 296.164 61.0697 329.321 12.6586 350Z" fill="#01211F"/>
<path d="M12.6583 317.357C-26.7158 300.529 -60.0728 273.555 -83.4562 239.633C-106.84 205.711 -119.268 166.265 -119.268 125.973V102.344L12.6583 32.6375L144.584 102.344V125.973C144.586 166.265 132.158 205.711 108.775 239.634C85.3912 273.556 52.0333 300.53 12.6583 317.357Z" fill="#013B37"/>
<path d="M12.6586 0V32.643L-119.291 102.344L-149.546 85.679L12.6586 0Z" fill="#04B0A4"/>
<path d="M144.607 102.344L174.875 85.679C174.875 85.679 197.883 266.353 12.6699 350V317.357C12.6699 317.357 152.116 265.137 144.607 102.344Z" fill="#04B0A4"/>
<path d="M-118.832 102.344L-149.087 85.679C-149.087 85.679 -172.084 266.353 13.1176 350V317.357C13.1176 317.357 -126.346 265.137 -118.832 102.344Z" fill="black"/>
<path d="M12.6582 0V32.643L144.607 102.344L174.863 85.679L12.6582 0Z" fill="black"/>
<path d="M46.5932 195.793C46.5969 200.834 45.2815 205.801 42.7604 210.264C40.2393 214.727 36.5882 218.553 32.1221 221.411V265.18H-5.86911V221.411C-10.6121 218.369 -14.4301 214.239 -16.9536 209.423C-19.4771 204.606 -20.6207 199.266 -20.2737 193.918C-19.9267 188.57 -18.1009 183.396 -14.9729 178.897C-11.845 174.397 -7.52076 170.725 -2.41882 168.234C2.68313 165.744 8.39007 164.52 14.1497 164.682C19.9093 164.843 25.5266 166.384 30.458 169.156C35.3893 171.927 39.4677 175.835 42.2985 180.502C45.1293 185.168 46.6166 190.435 46.6165 195.793H46.5932Z" fill="black"/>
<path d="M3.52252 221.411V265.18H-5.86921V221.411C-11.7426 217.641 -16.1662 212.224 -18.4943 205.951C-20.8224 199.678 -20.9331 192.877 -18.8103 186.541C-16.6874 180.205 -12.4422 174.666 -6.69423 170.732C-0.946245 166.799 6.00359 164.676 13.1409 164.674C14.716 164.672 16.2891 164.775 17.8484 164.982C11.1792 165.862 4.9508 168.593 -0.0226097 172.817C-4.99602 177.042 -8.48311 182.563 -10.0281 188.659C-11.5731 194.755 -11.1041 201.142 -8.68235 206.987C-6.26066 212.831 -1.99893 217.86 3.54577 221.417L3.52252 221.411Z" fill="#04B0A4"/>
</g>
</g>
<defs>
<clipPath id="clip0_2626_467">
<rect width="325.776" height="350" fill="white" transform="translate(-150)"/>
</clipPath>
</defs>
</svg>
