<svg width="137" height="100" viewBox="0 0 137 100" fill="none" xmlns="http://www.w3.org/2000/svg">
<path d="M124.61 2H11.47C8.95921 2.00265 6.55202 3.00123 4.77662 4.77662C3.00123 6.55202 2.00265 8.95921 2 11.47L2 88C2.00265 90.5108 3.00123 92.918 4.77662 94.6934C6.55202 96.4688 8.95921 97.4674 11.47 97.47H124.61C127.121 97.4674 129.528 96.4688 131.303 94.6934C133.079 92.918 134.077 90.5108 134.08 88V11.47C134.077 8.95921 133.079 6.55202 131.303 4.77662C129.528 3.00123 127.121 2.00265 124.61 2ZM128.08 88C128.077 88.9195 127.711 89.8006 127.061 90.4507C126.411 91.1009 125.529 91.4674 124.61 91.47H11.47C10.5505 91.4674 9.66943 91.1009 9.01925 90.4507C8.36907 89.8006 8.00264 88.9195 8 88V11.47C8.00264 10.5505 8.36907 9.66943 9.01925 9.01925C9.66943 8.36907 10.5505 8.00264 11.47 8H124.61C125.529 8.00264 126.411 8.36907 127.061 9.01925C127.711 9.66943 128.077 10.5505 128.08 11.47V88Z" fill="#01211F" stroke="black" stroke-width="4"/>
<path d="M103.34 31.8998C103.301 31.753 103.25 31.6093 103.19 31.4698C103.157 31.4011 103.12 31.3343 103.08 31.2698C103.02 31.1485 102.946 31.0344 102.86 30.9298C102.816 30.8622 102.765 30.7986 102.71 30.7398C102.621 30.639 102.524 30.5454 102.42 30.4598C102.389 30.424 102.356 30.3906 102.32 30.3598L86 17.5298C85.6915 17.2729 85.3346 17.0805 84.9504 16.964C84.5663 16.8475 84.1626 16.8093 83.7634 16.8517C83.3642 16.8941 82.9776 17.0161 82.6264 17.2107C82.2752 17.4052 81.9667 17.6682 81.719 17.9841C81.4713 18.3001 81.2896 18.6625 81.1845 19.05C81.0795 19.4375 81.0533 19.8421 81.1075 20.2398C81.1617 20.6376 81.2951 21.0205 81.5 21.3657C81.7048 21.711 81.9768 22.0116 82.3 22.2498L91.8 29.7198H35.61C34.8143 29.7198 34.0513 30.0359 33.4887 30.5985C32.9261 31.1611 32.61 31.9241 32.61 32.7198C32.61 33.5154 32.9261 34.2785 33.4887 34.8411C34.0513 35.4037 34.8143 35.7198 35.61 35.7198H91.79L82.29 43.1798C81.6641 43.6718 81.2592 44.3922 81.1645 45.1827C81.0698 45.9732 81.293 46.7689 81.785 47.3948C82.277 48.0207 82.9974 48.4255 83.7879 48.5203C84.5784 48.615 85.3741 48.3918 86 47.8998L102.33 35.0798C102.368 35.0481 102.402 35.0111 102.43 34.9698C102.536 34.8869 102.633 34.793 102.72 34.6898C102.77 34.6298 102.83 34.5698 102.87 34.5098C102.956 34.4017 103.03 34.2843 103.09 34.1598C103.133 34.0965 103.169 34.0296 103.2 33.9598C103.262 33.8209 103.312 33.6771 103.35 33.5298C103.356 33.4733 103.356 33.4163 103.35 33.3598C103.457 32.9364 103.457 32.4932 103.35 32.0698C103.351 32.013 103.348 31.9561 103.34 31.8998Z" fill="#01211F" stroke="black" stroke-width="4"/>
<path d="M100.47 63.7401H44.29L53.79 56.2701C54.1162 56.0326 54.3912 55.7318 54.5985 55.3855C54.8057 55.0392 54.941 54.6547 54.9962 54.255C55.0514 53.8552 55.0253 53.4485 54.9197 53.059C54.814 52.6695 54.6308 52.3054 54.3811 51.9884C54.1314 51.6714 53.8203 51.408 53.4664 51.214C53.1125 51.0201 52.7232 50.8995 52.3216 50.8595C51.9201 50.8195 51.5146 50.861 51.1294 50.9813C50.7442 51.1017 50.3873 51.2986 50.08 51.5601L33.76 64.3801L33.65 64.4801L33.37 64.7601L33.21 64.9501C33.1306 65.0609 33.0603 65.1779 33 65.3001C32.9575 65.3599 32.9207 65.4235 32.89 65.4901C32.8296 65.6296 32.7794 65.7733 32.74 65.9201L32.68 66.0901C32.6364 66.3041 32.613 66.5218 32.61 66.7401C32.6124 66.9552 32.6358 67.1696 32.68 67.3801L32.74 67.5601C32.781 67.7064 32.8311 67.8501 32.89 67.9901L33 68.1801C33.0603 68.3023 33.1306 68.4194 33.21 68.5301L33.37 68.7101C33.4582 68.8117 33.5516 68.9085 33.65 69.0001L33.76 69.1001L50.08 81.9201C50.3899 82.1637 50.7448 82.3439 51.1243 82.4504C51.5039 82.5568 51.9007 82.5875 52.2921 82.5406C52.6835 82.4937 53.0618 82.3702 53.4055 82.1771C53.7491 81.984 54.0514 81.7251 54.295 81.4151C54.5386 81.1052 54.7188 80.7504 54.8252 80.3708C54.9317 79.9913 54.9623 79.5945 54.9154 79.2031C54.8685 78.8117 54.745 78.4333 54.5519 78.0897C54.3588 77.746 54.0999 77.4437 53.79 77.2001L44.29 69.7401H100.47C101.266 69.7401 102.029 69.4241 102.591 68.8615C103.154 68.2989 103.47 67.5358 103.47 66.7401C103.47 65.9445 103.154 65.1814 102.591 64.6188C102.029 64.0562 101.266 63.7401 100.47 63.7401Z" fill="#01211F" stroke="black" stroke-width="4"/>
</svg>
